# MagicaVoxel @ Ephtracy

# group
o 

# material
mtllib glider.mtl
usemtl palette

# normals
vn -1 0 0
vn 1 0 0
vn 0 0 1
vn 0 0 -1
vn 0 -1 0
vn 0 1 0

# texcoords
vt 0.435547 0.5
vt 0.724609 0.5
vt 0.986328 0.5

# verts
v -1 0 -0.9
v -1 0 -1.1
v -1 0.1 -0.9
v -1 0.1 -1.1
v -0.9 0 -0.8
v -0.9 0 -0.9
v -0.9 0.1 -0.8
v -0.9 0.1 -0.9
v -0.8 0 -0.6
v -0.8 0 -0.8
v -0.8 0.1 -0.6
v -0.8 0.1 -0.8
v -0.7 0 -0.1
v -0.7 0 -0.6
v -0.7 0.1 -0.1
v -0.7 0.1 -0.6
v -0.6 0 0.4
v -0.6 0 -0.1
v -0.6 0.1 0.4
v -0.6 0.1 -0.1
v -0.4 0 0.6
v -0.4 0 0.4
v -0.4 0.1 0.6
v -0.4 0.1 0.4
v -0.2 0 0.8
v -0.2 0 0.6
v -0.2 0.1 0.8
v -0.2 0.1 0.6
v -0.1 0 1
v -0.1 0 0.8
v -0.1 0.1 1
v -0.1 0.1 0.8
v 0.1 0 1
v 0.1 0 0.8
v 0.1 0.1 1
v 0.1 0.1 0.8
v 0.2 0 0.8
v 0.2 0 0.6
v 0.2 0.1 0.8
v 0.2 0.1 0.6
v 0.4 0 0.6
v 0.4 0 0.4
v 0.4 0.1 0.6
v 0.4 0.1 0.4
v 0.6 0 0.4
v 0.6 0 -0.1
v 0.6 0.1 0.4
v 0.6 0.1 -0.1
v 0.7 0 -0.1
v 0.7 0 -0.6
v 0.7 0.1 -0.1
v 0.7 0.1 -0.6
v 0.8 0 -0.6
v 0.8 0 -0.8
v 0.8 0.1 -0.6
v 0.8 0.1 -0.8
v 0.9 0 -0.8
v 0.9 0 -0.9
v 0.9 0.1 -0.8
v 0.9 0.1 -0.9
v 1 0 -0.9
v 1 0 -1.1
v 1 0.1 -0.9
v 1 0.1 -1.1
v -0.1 0 1
v -0.1 0.1 1
v 0.1 0 1
v 0.1 0.1 1
v -0.2 0 0.8
v -0.2 0.1 0.8
v -0.1 0 0.8
v -0.1 0.1 0.8
v 0.1 0 0.8
v 0.1 0.1 0.8
v 0.2 0 0.8
v 0.2 0.1 0.8
v -0.4 0 0.6
v -0.4 0.1 0.6
v -0.2 0 0.6
v -0.2 0.1 0.6
v 0.2 0 0.6
v 0.2 0.1 0.6
v 0.4 0 0.6
v 0.4 0.1 0.6
v -0.6 0 0.4
v -0.6 0.1 0.4
v -0.4 0 0.4
v -0.4 0.1 0.4
v 0.4 0 0.4
v 0.4 0.1 0.4
v 0.6 0 0.4
v 0.6 0.1 0.4
v -0.7 0 -0.1
v -0.7 0.1 -0.1
v -0.6 0 -0.1
v -0.6 0.1 -0.1
v 0.6 0 -0.1
v 0.6 0.1 -0.1
v 0.7 0 -0.1
v 0.7 0.1 -0.1
v -0.8 0 -0.6
v -0.8 0.1 -0.6
v -0.7 0 -0.6
v -0.7 0.1 -0.6
v 0.7 0 -0.6
v 0.7 0.1 -0.6
v 0.8 0 -0.6
v 0.8 0.1 -0.6
v -0.9 0 -0.8
v -0.9 0.1 -0.8
v -0.8 0 -0.8
v -0.8 0.1 -0.8
v 0.8 0 -0.8
v 0.8 0.1 -0.8
v 0.9 0 -0.8
v 0.9 0.1 -0.8
v -1 0 -0.9
v -1 0.1 -0.9
v -0.9 0 -0.9
v -0.9 0.1 -0.9
v 0.9 0 -0.9
v 0.9 0.1 -0.9
v 1 0 -0.9
v 1 0.1 -0.9
v -1 0 -1.1
v -1 0.1 -1.1
v 1 0 -1.1
v 1 0.1 -1.1
v -0.1 0 1
v 0.1 0 1
v -0.2 0 0.8
v -0.1 0 0.8
v 0.1 0 0.8
v 0.2 0 0.8
v -0.4 0 0.6
v -0.2 0 0.6
v -0.1 0 0.6
v 0.1 0 0.6
v 0.2 0 0.6
v 0.4 0 0.6
v -0.3 0 0.5
v -0.2 0 0.5
v 0.2 0 0.5
v 0.3 0 0.5
v -0.6 0 0.4
v -0.4 0 0.4
v -0.3 0 0.4
v 0.3 0 0.4
v 0.4 0 0.4
v 0.6 0 0.4
v -0.5 0 0.3
v -0.4 0 0.3
v 0.4 0 0.3
v 0.5 0 0.3
v -0.7 0 -0.1
v -0.6 0 -0.1
v -0.5 0 -0.1
v 0.5 0 -0.1
v 0.6 0 -0.1
v 0.7 0 -0.1
v -0.8 0 -0.6
v -0.7 0 -0.6
v -0.6 0 -0.6
v 0.6 0 -0.6
v 0.7 0 -0.6
v 0.8 0 -0.6
v -0.9 0 -0.8
v -0.8 0 -0.8
v -0.7 0 -0.8
v 0.7 0 -0.8
v 0.8 0 -0.8
v 0.9 0 -0.8
v -1 0 -0.9
v -0.9 0 -0.9
v -0.8 0 -0.9
v 0.8 0 -0.9
v 0.9 0 -0.9
v 1 0 -0.9
v -0.9 0 -1
v -0.5 0 -1
v -0.4 0 -1
v -0.1 0 -1
v 0.1 0 -1
v 0.4 0 -1
v 0.5 0 -1
v 0.9 0 -1
v -1 0 -1.1
v 1 0 -1.1
v -0.1 0.1 1
v 0.1 0.1 1
v -0.2 0.1 0.8
v -0.1 0.1 0.8
v 0.1 0.1 0.8
v 0.2 0.1 0.8
v -0.4 0.1 0.6
v -0.2 0.1 0.6
v -0.1 0.1 0.6
v 0.1 0.1 0.6
v 0.2 0.1 0.6
v 0.4 0.1 0.6
v -0.3 0.1 0.5
v -0.2 0.1 0.5
v 0.2 0.1 0.5
v 0.3 0.1 0.5
v -0.6 0.1 0.4
v -0.4 0.1 0.4
v -0.3 0.1 0.4
v 0.3 0.1 0.4
v 0.4 0.1 0.4
v 0.6 0.1 0.4
v -0.5 0.1 0.3
v -0.4 0.1 0.3
v 0.4 0.1 0.3
v 0.5 0.1 0.3
v -0.7 0.1 -0.1
v -0.6 0.1 -0.1
v -0.5 0.1 -0.1
v 0.5 0.1 -0.1
v 0.6 0.1 -0.1
v 0.7 0.1 -0.1
v -0.8 0.1 -0.6
v -0.7 0.1 -0.6
v -0.6 0.1 -0.6
v 0.6 0.1 -0.6
v 0.7 0.1 -0.6
v 0.8 0.1 -0.6
v -0.9 0.1 -0.8
v -0.8 0.1 -0.8
v -0.7 0.1 -0.8
v 0.7 0.1 -0.8
v 0.8 0.1 -0.8
v 0.9 0.1 -0.8
v -1 0.1 -0.9
v -0.9 0.1 -0.9
v -0.8 0.1 -0.9
v 0.8 0.1 -0.9
v 0.9 0.1 -0.9
v 1 0.1 -0.9
v -0.9 0.1 -1
v -0.5 0.1 -1
v -0.4 0.1 -1
v -0.1 0.1 -1
v 0.1 0.1 -1
v 0.4 0.1 -1
v 0.5 0.1 -1
v 0.9 0.1 -1
v -1 0.1 -1.1
v 1 0.1 -1.1

# faces
f 3/3/1 2/3/1 1/3/1
f 4/3/1 2/3/1 3/3/1
f 7/3/1 6/3/1 5/3/1
f 8/3/1 6/3/1 7/3/1
f 11/3/1 10/3/1 9/3/1
f 12/3/1 10/3/1 11/3/1
f 15/3/1 14/3/1 13/3/1
f 16/3/1 14/3/1 15/3/1
f 19/3/1 18/3/1 17/3/1
f 20/3/1 18/3/1 19/3/1
f 23/3/1 22/3/1 21/3/1
f 24/3/1 22/3/1 23/3/1
f 27/3/1 26/3/1 25/3/1
f 28/3/1 26/3/1 27/3/1
f 31/3/1 30/3/1 29/3/1
f 32/3/1 30/3/1 31/3/1
f 33/3/2 34/3/2 35/3/2
f 35/3/2 34/3/2 36/3/2
f 37/3/2 38/3/2 39/3/2
f 39/3/2 38/3/2 40/3/2
f 41/3/2 42/3/2 43/3/2
f 43/3/2 42/3/2 44/3/2
f 45/3/2 46/3/2 47/3/2
f 47/3/2 46/3/2 48/3/2
f 49/3/2 50/3/2 51/3/2
f 51/3/2 50/3/2 52/3/2
f 53/3/2 54/3/2 55/3/2
f 55/3/2 54/3/2 56/3/2
f 57/3/2 58/3/2 59/3/2
f 59/3/2 58/3/2 60/3/2
f 61/3/2 62/3/2 63/3/2
f 63/3/2 62/3/2 64/3/2
f 67/3/3 66/3/3 65/3/3
f 68/3/3 66/3/3 67/3/3
f 71/3/3 70/3/3 69/3/3
f 72/3/3 70/3/3 71/3/3
f 75/3/3 74/3/3 73/3/3
f 76/3/3 74/3/3 75/3/3
f 79/3/3 78/3/3 77/3/3
f 80/3/3 78/3/3 79/3/3
f 83/3/3 82/3/3 81/3/3
f 84/3/3 82/3/3 83/3/3
f 87/3/3 86/3/3 85/3/3
f 88/3/3 86/3/3 87/3/3
f 91/3/3 90/3/3 89/3/3
f 92/3/3 90/3/3 91/3/3
f 95/3/3 94/3/3 93/3/3
f 96/3/3 94/3/3 95/3/3
f 99/3/3 98/3/3 97/3/3
f 100/3/3 98/3/3 99/3/3
f 103/3/3 102/3/3 101/3/3
f 104/3/3 102/3/3 103/3/3
f 107/3/3 106/3/3 105/3/3
f 108/3/3 106/3/3 107/3/3
f 111/3/3 110/3/3 109/3/3
f 112/3/3 110/3/3 111/3/3
f 115/3/3 114/3/3 113/3/3
f 116/3/3 114/3/3 115/3/3
f 119/3/3 118/3/3 117/3/3
f 120/3/3 118/3/3 119/3/3
f 123/3/3 122/3/3 121/3/3
f 124/3/3 122/3/3 123/3/3
f 125/3/4 126/3/4 127/3/4
f 127/3/4 126/3/4 128/3/4
f 132/3/5 130/3/5 129/3/5
f 133/3/5 130/3/5 132/3/5
f 136/3/5 132/3/5 131/3/5
f 137/1/5 133/1/5 132/1/5
f 137/3/5 132/3/5 136/3/5
f 138/3/5 134/3/5 133/3/5
f 138/1/5 133/1/5 137/1/5
f 139/3/5 134/3/5 138/3/5
f 141/3/5 136/3/5 135/3/5
f 142/2/5 137/2/5 136/2/5
f 142/3/5 136/3/5 141/3/5
f 143/3/5 140/3/5 139/3/5
f 143/2/5 139/2/5 138/2/5
f 144/3/5 140/3/5 143/3/5
f 146/3/5 141/3/5 135/3/5
f 147/2/5 142/2/5 141/2/5
f 147/3/5 141/3/5 146/3/5
f 148/3/5 140/3/5 144/3/5
f 148/2/5 144/2/5 143/2/5
f 149/3/5 140/3/5 148/3/5
f 151/3/5 146/3/5 145/3/5
f 152/2/5 147/2/5 146/2/5
f 152/3/5 146/3/5 151/3/5
f 153/3/5 150/3/5 149/3/5
f 153/2/5 149/2/5 148/2/5
f 154/3/5 150/3/5 153/3/5
f 156/3/5 151/3/5 145/3/5
f 157/1/5 152/1/5 151/1/5
f 157/3/5 151/3/5 156/3/5
f 158/3/5 150/3/5 154/3/5
f 158/1/5 154/1/5 153/1/5
f 159/3/5 150/3/5 158/3/5
f 162/3/5 156/3/5 155/3/5
f 163/2/5 157/2/5 156/2/5
f 163/3/5 156/3/5 162/3/5
f 164/3/5 160/3/5 159/3/5
f 164/2/5 159/2/5 158/2/5
f 165/3/5 160/3/5 164/3/5
f 168/3/5 162/3/5 161/3/5
f 169/2/5 163/2/5 162/2/5
f 169/3/5 162/3/5 168/3/5
f 170/3/5 166/3/5 165/3/5
f 170/2/5 165/2/5 164/2/5
f 171/3/5 166/3/5 170/3/5
f 174/3/5 168/3/5 167/3/5
f 175/2/5 169/2/5 168/2/5
f 175/3/5 168/3/5 174/3/5
f 176/3/5 172/3/5 171/3/5
f 176/2/5 171/2/5 170/2/5
f 177/3/5 172/3/5 176/3/5
f 179/3/5 174/3/5 173/3/5
f 179/2/5 175/2/5 174/2/5
f 180/1/5 152/1/5 157/1/5
f 180/2/5 175/2/5 179/2/5
f 180/2/5 157/2/5 163/2/5
f 180/2/5 163/2/5 169/2/5
f 180/2/5 169/2/5 175/2/5
f 181/2/5 147/2/5 152/2/5
f 181/1/5 152/1/5 180/1/5
f 182/2/5 142/2/5 147/2/5
f 182/2/5 147/2/5 181/2/5
f 182/2/5 137/2/5 142/2/5
f 182/1/5 138/1/5 137/1/5
f 183/2/5 143/2/5 138/2/5
f 183/1/5 138/1/5 182/1/5
f 183/2/5 148/2/5 143/2/5
f 183/2/5 153/2/5 148/2/5
f 184/1/5 158/1/5 153/1/5
f 184/2/5 153/2/5 183/2/5
f 185/2/5 170/2/5 164/2/5
f 185/1/5 158/1/5 184/1/5
f 185/2/5 176/2/5 170/2/5
f 185/2/5 164/2/5 158/2/5
f 185/2/5 177/2/5 176/2/5
f 186/3/5 178/3/5 177/3/5
f 186/2/5 177/2/5 185/2/5
f 187/3/5 181/3/5 180/3/5
f 187/3/5 184/3/5 183/3/5
f 187/3/5 186/3/5 185/3/5
f 187/3/5 180/3/5 179/3/5
f 187/3/5 182/3/5 181/3/5
f 187/3/5 183/3/5 182/3/5
f 187/3/5 179/3/5 173/3/5
f 187/3/5 185/3/5 184/3/5
f 188/3/5 178/3/5 186/3/5
f 188/3/5 186/3/5 187/3/5
f 189/3/6 190/3/6 192/3/6
f 192/3/6 190/3/6 193/3/6
f 191/3/6 192/3/6 196/3/6
f 192/1/6 193/1/6 197/1/6
f 196/3/6 192/3/6 197/3/6
f 193/3/6 194/3/6 198/3/6
f 197/1/6 193/1/6 198/1/6
f 198/3/6 194/3/6 199/3/6
f 195/3/6 196/3/6 201/3/6
f 196/2/6 197/2/6 202/2/6
f 201/3/6 196/3/6 202/3/6
f 199/3/6 200/3/6 203/3/6
f 198/2/6 199/2/6 203/2/6
f 203/3/6 200/3/6 204/3/6
f 195/3/6 201/3/6 206/3/6
f 201/2/6 202/2/6 207/2/6
f 206/3/6 201/3/6 207/3/6
f 204/3/6 200/3/6 208/3/6
f 203/2/6 204/2/6 208/2/6
f 208/3/6 200/3/6 209/3/6
f 205/3/6 206/3/6 211/3/6
f 206/2/6 207/2/6 212/2/6
f 211/3/6 206/3/6 212/3/6
f 209/3/6 210/3/6 213/3/6
f 208/2/6 209/2/6 213/2/6
f 213/3/6 210/3/6 214/3/6
f 205/3/6 211/3/6 216/3/6
f 211/1/6 212/1/6 217/1/6
f 216/3/6 211/3/6 217/3/6
f 214/3/6 210/3/6 218/3/6
f 213/1/6 214/1/6 218/1/6
f 218/3/6 210/3/6 219/3/6
f 215/3/6 216/3/6 222/3/6
f 216/2/6 217/2/6 223/2/6
f 222/3/6 216/3/6 223/3/6
f 219/3/6 220/3/6 224/3/6
f 218/2/6 219/2/6 224/2/6
f 224/3/6 220/3/6 225/3/6
f 221/3/6 222/3/6 228/3/6
f 222/2/6 223/2/6 229/2/6
f 228/3/6 222/3/6 229/3/6
f 225/3/6 226/3/6 230/3/6
f 224/2/6 225/2/6 230/2/6
f 230/3/6 226/3/6 231/3/6
f 227/3/6 228/3/6 234/3/6
f 228/2/6 229/2/6 235/2/6
f 234/3/6 228/3/6 235/3/6
f 231/3/6 232/3/6 236/3/6
f 230/2/6 231/2/6 236/2/6
f 236/3/6 232/3/6 237/3/6
f 233/3/6 234/3/6 239/3/6
f 234/2/6 235/2/6 239/2/6
f 217/1/6 212/1/6 240/1/6
f 239/2/6 235/2/6 240/2/6
f 223/2/6 217/2/6 240/2/6
f 229/2/6 223/2/6 240/2/6
f 235/2/6 229/2/6 240/2/6
f 212/2/6 207/2/6 241/2/6
f 240/1/6 212/1/6 241/1/6
f 207/2/6 202/2/6 242/2/6
f 241/2/6 207/2/6 242/2/6
f 202/2/6 197/2/6 242/2/6
f 197/1/6 198/1/6 242/1/6
f 198/2/6 203/2/6 243/2/6
f 242/1/6 198/1/6 243/1/6
f 203/2/6 208/2/6 243/2/6
f 208/2/6 213/2/6 243/2/6
f 213/1/6 218/1/6 244/1/6
f 243/2/6 213/2/6 244/2/6
f 224/2/6 230/2/6 245/2/6
f 244/1/6 218/1/6 245/1/6
f 230/2/6 236/2/6 245/2/6
f 218/2/6 224/2/6 245/2/6
f 236/2/6 237/2/6 245/2/6
f 237/3/6 238/3/6 246/3/6
f 245/2/6 237/2/6 246/2/6
f 240/3/6 241/3/6 247/3/6
f 243/3/6 244/3/6 247/3/6
f 245/3/6 246/3/6 247/3/6
f 239/3/6 240/3/6 247/3/6
f 241/3/6 242/3/6 247/3/6
f 242/3/6 243/3/6 247/3/6
f 233/3/6 239/3/6 247/3/6
f 244/3/6 245/3/6 247/3/6
f 246/3/6 238/3/6 248/3/6
f 247/3/6 246/3/6 248/3/6
